# Blender v3.4.1 OBJ File: ''
# www.blender.org
mtllib arrow.mtl
o Cube
v 0.000000 0.000000 -0.000000
v 0.000000 1.000000 -0.000000
v 0.000000 0.500000 1.000000
v 0.000000 0.500000 -0.000000
v -0.500000 0.500000 -0.000000
v 0.500000 0.500000 -0.000000
vt 0.500000 0.750000
vt 0.625000 1.000000
vt 0.500000 1.000000
vt 0.500000 0.000000
vt 0.625000 0.250000
vt 0.500000 0.250000
vt 0.500000 0.500000
vt 0.625000 0.750000
vt 0.625000 0.500000
vt 0.375000 0.250000
vt 0.375000 0.500000
vt 0.375000 0.000000
vt 0.375000 0.750000
vn 0.0000 -0.0000 -1.0000
vn -0.6667 0.6667 0.3333
vn 0.6667 0.6667 0.3333
vn 0.6667 -0.6667 0.3333
vn -0.6667 -0.6667 0.3333
usemtl Material
s off
f 5/1/1 2/2/1 4/3/1
f 4/4/1 2/5/1 6/6/1
f 3/7/2 2/8/2 5/1/2
f 6/6/3 2/9/3 3/7/3
f 1/10/4 6/6/4 3/7/4
f 1/11/5 3/7/5 5/1/5
f 1/12/1 4/4/1 6/6/1
f 1/13/1 5/1/1 4/3/1
